<svg xmlns="http://www.w3.org/2000/svg" xmlns:xlink="http://www.w3.org/1999/xlink" width="800" zoomAndPan="magnify" viewBox="0 0 600 449.999984" height="600" preserveAspectRatio="xMidYMid meet" version="1.0"><defs><g/></defs><rect x="-60" width="720" fill="#ffffff" y="-44.999998" height="539.99998" fill-opacity="1"/><rect x="-60" width="720" fill="#ffffff" y="-44.999998" height="539.99998" fill-opacity="1"/><rect x="-60" width="720" fill="#ca2026" y="-44.999998" height="539.99998" fill-opacity="1"/><g fill="#ffffff" fill-opacity="1"><g transform="translate(354.960394, 253.408427)"><g><path d="M 15.3125 0.578125 C 13.238281 0.578125 11.25 0.238281 9.34375 -0.4375 C 7.4375 -1.125 5.820312 -2.195312 4.5 -3.65625 C 3.175781 -5.113281 2.335938 -7.007812 1.984375 -9.34375 L 9.234375 -9.34375 C 9.484375 -8.289062 9.9375 -7.457031 10.59375 -6.84375 C 11.25 -6.238281 12 -5.804688 12.84375 -5.546875 C 13.6875 -5.285156 14.488281 -5.15625 15.25 -5.15625 C 16.851562 -5.15625 18.144531 -5.40625 19.125 -5.90625 C 20.113281 -6.414062 20.609375 -7.195312 20.609375 -8.25 C 20.609375 -9.050781 20.316406 -9.691406 19.734375 -10.171875 C 19.148438 -10.648438 18.191406 -11.015625 16.859375 -11.265625 L 11.640625 -12.359375 C 9.015625 -12.910156 6.910156 -13.847656 5.328125 -15.171875 C 3.742188 -16.503906 2.929688 -18.394531 2.890625 -20.84375 C 2.890625 -22.613281 3.363281 -24.207031 4.3125 -25.625 C 5.257812 -27.039062 6.660156 -28.160156 8.515625 -28.984375 C 10.367188 -29.804688 12.640625 -30.21875 15.328125 -30.21875 C 18.984375 -30.21875 21.90625 -29.410156 24.09375 -27.796875 C 26.28125 -26.191406 27.394531 -23.929688 27.4375 -21.015625 L 20.4375 -21.015625 C 20.226562 -22.160156 19.660156 -23.039062 18.734375 -23.65625 C 17.804688 -24.28125 16.644531 -24.59375 15.25 -24.59375 C 13.800781 -24.59375 12.609375 -24.332031 11.671875 -23.8125 C 10.734375 -23.300781 10.265625 -22.519531 10.265625 -21.46875 C 10.265625 -20.6875 10.644531 -20.070312 11.40625 -19.625 C 12.175781 -19.175781 13.363281 -18.785156 14.96875 -18.453125 L 19.78125 -17.375 C 21.4375 -16.96875 22.785156 -16.414062 23.828125 -15.71875 C 24.867188 -15.019531 25.675781 -14.257812 26.25 -13.4375 C 26.820312 -12.613281 27.21875 -11.785156 27.4375 -10.953125 C 27.664062 -10.128906 27.78125 -9.382812 27.78125 -8.71875 C 27.78125 -6.75 27.253906 -5.070312 26.203125 -3.6875 C 25.148438 -2.300781 23.6875 -1.242188 21.8125 -0.515625 C 19.9375 0.210938 17.769531 0.578125 15.3125 0.578125 Z M 15.3125 0.578125 "/></g></g></g><g fill="#ffffff" fill-opacity="1"><g transform="translate(384.99414, 253.408427)"><g><path d="M 44.453125 -29.640625 L 34.71875 0 L 28.0625 0 L 22.53125 -17.9375 L 17.03125 0 L 10.546875 0 L 0.953125 -29.640625 L 8.34375 -29.640625 L 14.015625 -11.265625 L 14.25 -11.265625 L 19.6875 -29.640625 L 25.65625 -29.640625 L 31.15625 -11.265625 L 31.390625 -11.265625 L 36.890625 -29.640625 Z M 44.453125 -29.640625 "/></g></g></g><g fill="#ffffff" fill-opacity="1"><g transform="translate(430.359992, 253.408427)"><g><path d="M 12.015625 -29.640625 L 12.015625 0 L 4.015625 0 L 4.015625 -29.640625 Z M 12.09375 -41.421875 L 12.09375 -33.875 L 3.953125 -33.875 L 3.953125 -41.421875 Z M 12.09375 -41.421875 "/></g></g></g><g fill="#ffffff" fill-opacity="1"><g transform="translate(446.3799, 253.408427)"><g><path d="M 15.3125 0.578125 C 13.238281 0.578125 11.25 0.238281 9.34375 -0.4375 C 7.4375 -1.125 5.820312 -2.195312 4.5 -3.65625 C 3.175781 -5.113281 2.335938 -7.007812 1.984375 -9.34375 L 9.234375 -9.34375 C 9.484375 -8.289062 9.9375 -7.457031 10.59375 -6.84375 C 11.25 -6.238281 12 -5.804688 12.84375 -5.546875 C 13.6875 -5.285156 14.488281 -5.15625 15.25 -5.15625 C 16.851562 -5.15625 18.144531 -5.40625 19.125 -5.90625 C 20.113281 -6.414062 20.609375 -7.195312 20.609375 -8.25 C 20.609375 -9.050781 20.316406 -9.691406 19.734375 -10.171875 C 19.148438 -10.648438 18.191406 -11.015625 16.859375 -11.265625 L 11.640625 -12.359375 C 9.015625 -12.910156 6.910156 -13.847656 5.328125 -15.171875 C 3.742188 -16.503906 2.929688 -18.394531 2.890625 -20.84375 C 2.890625 -22.613281 3.363281 -24.207031 4.3125 -25.625 C 5.257812 -27.039062 6.660156 -28.160156 8.515625 -28.984375 C 10.367188 -29.804688 12.640625 -30.21875 15.328125 -30.21875 C 18.984375 -30.21875 21.90625 -29.410156 24.09375 -27.796875 C 26.28125 -26.191406 27.394531 -23.929688 27.4375 -21.015625 L 20.4375 -21.015625 C 20.226562 -22.160156 19.660156 -23.039062 18.734375 -23.65625 C 17.804688 -24.28125 16.644531 -24.59375 15.25 -24.59375 C 13.800781 -24.59375 12.609375 -24.332031 11.671875 -23.8125 C 10.734375 -23.300781 10.265625 -22.519531 10.265625 -21.46875 C 10.265625 -20.6875 10.644531 -20.070312 11.40625 -19.625 C 12.175781 -19.175781 13.363281 -18.785156 14.96875 -18.453125 L 19.78125 -17.375 C 21.4375 -16.96875 22.785156 -16.414062 23.828125 -15.71875 C 24.867188 -15.019531 25.675781 -14.257812 26.25 -13.4375 C 26.820312 -12.613281 27.21875 -11.785156 27.4375 -10.953125 C 27.664062 -10.128906 27.78125 -9.382812 27.78125 -8.71875 C 27.78125 -6.75 27.253906 -5.070312 26.203125 -3.6875 C 25.148438 -2.300781 23.6875 -1.242188 21.8125 -0.515625 C 19.9375 0.210938 17.769531 0.578125 15.3125 0.578125 Z M 15.3125 0.578125 "/></g></g></g><g fill="#ffffff" fill-opacity="1"><g transform="translate(476.413646, 253.408427)"><g><path d="M 15.3125 0.578125 C 13.238281 0.578125 11.25 0.238281 9.34375 -0.4375 C 7.4375 -1.125 5.820312 -2.195312 4.5 -3.65625 C 3.175781 -5.113281 2.335938 -7.007812 1.984375 -9.34375 L 9.234375 -9.34375 C 9.484375 -8.289062 9.9375 -7.457031 10.59375 -6.84375 C 11.25 -6.238281 12 -5.804688 12.84375 -5.546875 C 13.6875 -5.285156 14.488281 -5.15625 15.25 -5.15625 C 16.851562 -5.15625 18.144531 -5.40625 19.125 -5.90625 C 20.113281 -6.414062 20.609375 -7.195312 20.609375 -8.25 C 20.609375 -9.050781 20.316406 -9.691406 19.734375 -10.171875 C 19.148438 -10.648438 18.191406 -11.015625 16.859375 -11.265625 L 11.640625 -12.359375 C 9.015625 -12.910156 6.910156 -13.847656 5.328125 -15.171875 C 3.742188 -16.503906 2.929688 -18.394531 2.890625 -20.84375 C 2.890625 -22.613281 3.363281 -24.207031 4.3125 -25.625 C 5.257812 -27.039062 6.660156 -28.160156 8.515625 -28.984375 C 10.367188 -29.804688 12.640625 -30.21875 15.328125 -30.21875 C 18.984375 -30.21875 21.90625 -29.410156 24.09375 -27.796875 C 26.28125 -26.191406 27.394531 -23.929688 27.4375 -21.015625 L 20.4375 -21.015625 C 20.226562 -22.160156 19.660156 -23.039062 18.734375 -23.65625 C 17.804688 -24.28125 16.644531 -24.59375 15.25 -24.59375 C 13.800781 -24.59375 12.609375 -24.332031 11.671875 -23.8125 C 10.734375 -23.300781 10.265625 -22.519531 10.265625 -21.46875 C 10.265625 -20.6875 10.644531 -20.070312 11.40625 -19.625 C 12.175781 -19.175781 13.363281 -18.785156 14.96875 -18.453125 L 19.78125 -17.375 C 21.4375 -16.96875 22.785156 -16.414062 23.828125 -15.71875 C 24.867188 -15.019531 25.675781 -14.257812 26.25 -13.4375 C 26.820312 -12.613281 27.21875 -11.785156 27.4375 -10.953125 C 27.664062 -10.128906 27.78125 -9.382812 27.78125 -8.71875 C 27.78125 -6.75 27.253906 -5.070312 26.203125 -3.6875 C 25.148438 -2.300781 23.6875 -1.242188 21.8125 -0.515625 C 19.9375 0.210938 17.769531 0.578125 15.3125 0.578125 Z M 15.3125 0.578125 "/></g></g></g><g fill="#ffffff" fill-opacity="1"><g transform="translate(354.960394, 316.408423)"><g><path d="M 10.46875 -12.90625 C 10.445312 -11.394531 10.679688 -10.078125 11.171875 -8.953125 C 11.671875 -7.835938 12.394531 -6.976562 13.34375 -6.375 C 14.289062 -5.769531 15.429688 -5.46875 16.765625 -5.46875 C 18.203125 -5.46875 19.457031 -5.773438 20.53125 -6.390625 C 21.613281 -7.003906 22.363281 -8.007812 22.78125 -9.40625 L 30.328125 -9.40625 C 30.003906 -7.300781 29.164062 -5.503906 27.8125 -4.015625 C 26.46875 -2.523438 24.835938 -1.382812 22.921875 -0.59375 C 21.015625 0.1875 19.03125 0.578125 16.96875 0.578125 C 14.039062 0.578125 11.460938 -0.0351562 9.234375 -1.265625 C 7.015625 -2.503906 5.28125 -4.25 4.03125 -6.5 C 2.789062 -8.757812 2.171875 -11.414062 2.171875 -14.46875 C 2.171875 -17.4375 2.734375 -20.109375 3.859375 -22.484375 C 4.992188 -24.867188 6.632812 -26.753906 8.78125 -28.140625 C 10.9375 -29.523438 13.523438 -30.21875 16.546875 -30.21875 C 19.554688 -30.21875 22.085938 -29.582031 24.140625 -28.3125 C 26.203125 -27.039062 27.753906 -25.269531 28.796875 -23 C 29.835938 -20.738281 30.359375 -18.125 30.359375 -15.15625 L 30.359375 -12.90625 Z M 10.4375 -17.890625 L 22.53125 -17.890625 C 22.53125 -19.066406 22.3125 -20.148438 21.875 -21.140625 C 21.4375 -22.140625 20.769531 -22.925781 19.875 -23.5 C 18.988281 -24.070312 17.878906 -24.359375 16.546875 -24.359375 C 15.242188 -24.359375 14.132812 -24.046875 13.21875 -23.421875 C 12.3125 -22.804688 11.617188 -22 11.140625 -21 C 10.671875 -20.007812 10.4375 -18.972656 10.4375 -17.890625 Z M 10.4375 -17.890625 "/></g></g></g><g fill="#ffffff" fill-opacity="1"><g transform="translate(387.544707, 316.408423)"><g><path d="M 3.578125 0 L 3.578125 -29.640625 L 11.8125 -29.640625 L 11.8125 -25.453125 C 12.269531 -26.179688 12.863281 -26.882812 13.59375 -27.5625 C 14.332031 -28.238281 15.265625 -28.796875 16.390625 -29.234375 C 17.523438 -29.671875 18.863281 -29.890625 20.40625 -29.890625 C 22.21875 -29.890625 23.910156 -29.535156 25.484375 -28.828125 C 27.066406 -28.128906 28.34375 -27.019531 29.3125 -25.5 C 30.289062 -23.976562 30.78125 -21.992188 30.78125 -19.546875 L 30.78125 0 L 22.421875 0 L 22.421875 -18.515625 C 22.421875 -20.117188 21.941406 -21.320312 20.984375 -22.125 C 20.023438 -22.925781 18.859375 -23.328125 17.484375 -23.328125 C 16.566406 -23.328125 15.679688 -23.164062 14.828125 -22.84375 C 13.984375 -22.519531 13.289062 -22.03125 12.75 -21.375 C 12.21875 -20.726562 11.953125 -19.925781 11.953125 -18.96875 L 11.953125 0 Z M 3.578125 0 "/></g></g></g><g fill="#ffffff" fill-opacity="1"><g transform="translate(421.533268, 316.408423)"><g><path d="M 10.46875 -12.90625 C 10.445312 -11.394531 10.679688 -10.078125 11.171875 -8.953125 C 11.671875 -7.835938 12.394531 -6.976562 13.34375 -6.375 C 14.289062 -5.769531 15.429688 -5.46875 16.765625 -5.46875 C 18.203125 -5.46875 19.457031 -5.773438 20.53125 -6.390625 C 21.613281 -7.003906 22.363281 -8.007812 22.78125 -9.40625 L 30.328125 -9.40625 C 30.003906 -7.300781 29.164062 -5.503906 27.8125 -4.015625 C 26.46875 -2.523438 24.835938 -1.382812 22.921875 -0.59375 C 21.015625 0.1875 19.03125 0.578125 16.96875 0.578125 C 14.039062 0.578125 11.460938 -0.0351562 9.234375 -1.265625 C 7.015625 -2.503906 5.28125 -4.25 4.03125 -6.5 C 2.789062 -8.757812 2.171875 -11.414062 2.171875 -14.46875 C 2.171875 -17.4375 2.734375 -20.109375 3.859375 -22.484375 C 4.992188 -24.867188 6.632812 -26.753906 8.78125 -28.140625 C 10.9375 -29.523438 13.523438 -30.21875 16.546875 -30.21875 C 19.554688 -30.21875 22.085938 -29.582031 24.140625 -28.3125 C 26.203125 -27.039062 27.753906 -25.269531 28.796875 -23 C 29.835938 -20.738281 30.359375 -18.125 30.359375 -15.15625 L 30.359375 -12.90625 Z M 10.4375 -17.890625 L 22.53125 -17.890625 C 22.53125 -19.066406 22.3125 -20.148438 21.875 -21.140625 C 21.4375 -22.140625 20.769531 -22.925781 19.875 -23.5 C 18.988281 -24.070312 17.878906 -24.359375 16.546875 -24.359375 C 15.242188 -24.359375 14.132812 -24.046875 13.21875 -23.421875 C 12.3125 -22.804688 11.617188 -22 11.140625 -21 C 10.671875 -20.007812 10.4375 -18.972656 10.4375 -17.890625 Z M 10.4375 -17.890625 "/></g></g></g><g fill="#ffffff" fill-opacity="1"><g transform="translate(454.117582, 316.408423)"><g><path d="M 3.578125 0 L 3.578125 -29.640625 L 11.640625 -29.640625 L 11.640625 -22.609375 C 12.117188 -24.117188 12.789062 -25.441406 13.65625 -26.578125 C 14.53125 -27.722656 15.585938 -28.613281 16.828125 -29.25 C 18.066406 -29.894531 19.472656 -30.21875 21.046875 -30.21875 C 21.304688 -30.21875 21.554688 -30.203125 21.796875 -30.171875 C 22.035156 -30.140625 22.210938 -30.097656 22.328125 -30.046875 L 22.328125 -22.078125 C 22.160156 -22.148438 21.957031 -22.195312 21.71875 -22.21875 C 21.476562 -22.238281 21.257812 -22.253906 21.0625 -22.265625 C 19.425781 -22.398438 18.023438 -22.351562 16.859375 -22.125 C 15.691406 -21.894531 14.742188 -21.503906 14.015625 -20.953125 C 13.285156 -20.398438 12.757812 -19.722656 12.4375 -18.921875 C 12.113281 -18.117188 11.953125 -17.21875 11.953125 -16.21875 L 11.953125 0 Z M 3.578125 0 "/></g></g></g><g fill="#ffffff" fill-opacity="1"><g transform="translate(477.416653, 316.408423)"><g><path d="M 17.3125 9.796875 C 12.039062 9.796875 8.03125 9.128906 5.28125 7.796875 C 2.539062 6.460938 1.171875 4.703125 1.171875 2.515625 C 1.171875 1.503906 1.4375 0.65625 1.96875 -0.03125 C 2.507812 -0.71875 3.140625 -1.265625 3.859375 -1.671875 C 4.578125 -2.085938 5.234375 -2.40625 5.828125 -2.625 C 6.429688 -2.84375 6.800781 -2.988281 6.9375 -3.0625 C 6.632812 -3.238281 6.195312 -3.492188 5.625 -3.828125 C 5.050781 -4.160156 4.519531 -4.617188 4.03125 -5.203125 C 3.539062 -5.785156 3.296875 -6.546875 3.296875 -7.484375 C 3.296875 -8.535156 3.796875 -9.507812 4.796875 -10.40625 C 5.804688 -11.300781 7.332031 -11.921875 9.375 -12.265625 C 7.425781 -13.179688 5.941406 -14.421875 4.921875 -15.984375 C 3.910156 -17.554688 3.40625 -19.164062 3.40625 -20.8125 C 3.40625 -22.757812 4.015625 -24.429688 5.234375 -25.828125 C 6.460938 -27.222656 8.132812 -28.28125 10.25 -29 C 12.363281 -29.726562 14.753906 -30.09375 17.421875 -30.09375 C 19.472656 -30.09375 21.144531 -29.878906 22.4375 -29.453125 C 23.738281 -29.023438 24.945312 -28.46875 26.0625 -27.78125 C 26.5 -27.945312 27.078125 -28.164062 27.796875 -28.4375 C 28.523438 -28.71875 29.3125 -29.023438 30.15625 -29.359375 C 31 -29.703125 31.820312 -30.039062 32.625 -30.375 C 33.425781 -30.707031 34.140625 -31.003906 34.765625 -31.265625 L 34.734375 -24.796875 L 29.609375 -23.96875 C 29.816406 -23.445312 29.976562 -22.890625 30.09375 -22.296875 C 30.207031 -21.703125 30.265625 -21.21875 30.265625 -20.84375 C 30.265625 -19.125 29.765625 -17.515625 28.765625 -16.015625 C 27.765625 -14.523438 26.265625 -13.320312 24.265625 -12.40625 C 22.265625 -11.488281 19.796875 -11.03125 16.859375 -11.03125 C 16.492188 -11.03125 16.007812 -11.039062 15.40625 -11.0625 C 14.800781 -11.082031 14.3125 -11.113281 13.9375 -11.15625 C 12.800781 -11.09375 12.023438 -10.945312 11.609375 -10.71875 C 11.191406 -10.488281 10.984375 -10.222656 10.984375 -9.921875 C 10.984375 -9.460938 11.410156 -9.160156 12.265625 -9.015625 C 13.128906 -8.867188 14.429688 -8.738281 16.171875 -8.625 C 16.773438 -8.59375 17.617188 -8.546875 18.703125 -8.484375 C 19.796875 -8.429688 21.003906 -8.351562 22.328125 -8.25 C 25.960938 -8 28.671875 -7.101562 30.453125 -5.5625 C 32.242188 -4.03125 33.140625 -2.097656 33.140625 0.234375 C 33.140625 3.003906 31.820312 5.289062 29.1875 7.09375 C 26.5625 8.894531 22.601562 9.796875 17.3125 9.796875 Z M 18.65625 5.125 C 20.988281 5.125 22.648438 4.835938 23.640625 4.265625 C 24.640625 3.691406 25.140625 2.875 25.140625 1.8125 C 25.140625 0.90625 24.753906 0.171875 23.984375 -0.390625 C 23.222656 -0.953125 22.109375 -1.28125 20.640625 -1.375 L 13.84375 -1.828125 C 12.96875 -1.867188 12.1875 -1.734375 11.5 -1.421875 C 10.820312 -1.117188 10.296875 -0.703125 9.921875 -0.171875 C 9.554688 0.359375 9.375 0.929688 9.375 1.546875 C 9.375 2.785156 10.128906 3.691406 11.640625 4.265625 C 13.148438 4.835938 15.488281 5.125 18.65625 5.125 Z M 17.078125 -15.703125 C 18.671875 -15.703125 19.945312 -16.132812 20.90625 -17 C 21.875 -17.875 22.359375 -19.054688 22.359375 -20.546875 C 22.359375 -22.097656 21.875 -23.34375 20.90625 -24.28125 C 19.945312 -25.21875 18.671875 -25.6875 17.078125 -25.6875 C 15.515625 -25.6875 14.238281 -25.21875 13.25 -24.28125 C 12.269531 -23.34375 11.78125 -22.097656 11.78125 -20.546875 C 11.78125 -19.078125 12.253906 -17.898438 13.203125 -17.015625 C 14.148438 -16.140625 15.441406 -15.703125 17.078125 -15.703125 Z M 17.078125 -15.703125 "/></g></g></g><g fill="#ffffff" fill-opacity="1"><g transform="translate(513.411294, 316.408423)"><g><path d="M 8.203125 9.453125 C 6.171875 9.453125 4.738281 9.285156 3.90625 8.953125 C 3.082031 8.617188 2.671875 8.453125 2.671875 8.453125 L 2.671875 3.125 L 5.59375 3.234375 C 6.875 3.316406 7.90625 3.253906 8.6875 3.046875 C 9.46875 2.847656 10.0625 2.585938 10.46875 2.265625 C 10.882812 1.941406 11.175781 1.601562 11.34375 1.25 C 11.519531 0.894531 11.644531 0.613281 11.71875 0.40625 L 12.265625 -1.234375 L 0.75 -29.640625 L 9.03125 -29.640625 L 16.140625 -10.3125 L 23.328125 -29.640625 L 31.5 -29.640625 L 19.484375 0.171875 C 18.453125 2.691406 17.363281 4.617188 16.21875 5.953125 C 15.070312 7.296875 13.832031 8.210938 12.5 8.703125 C 11.175781 9.203125 9.742188 9.453125 8.203125 9.453125 Z M 8.203125 9.453125 "/></g></g></g><g fill="#ffffff" fill-opacity="1"><g transform="translate(354.960394, 379.408418)"><g><path d="M 3.578125 0 L 3.578125 -42.59375 L 11.890625 -42.59375 L 11.890625 -25.375 C 12.367188 -26.0625 12.972656 -26.742188 13.703125 -27.421875 C 14.429688 -28.097656 15.335938 -28.664062 16.421875 -29.125 C 17.515625 -29.582031 18.84375 -29.8125 20.40625 -29.8125 C 22.300781 -29.8125 24.023438 -29.441406 25.578125 -28.703125 C 27.140625 -27.972656 28.390625 -26.910156 29.328125 -25.515625 C 30.273438 -24.117188 30.75 -22.414062 30.75 -20.40625 L 30.75 0 L 22.359375 0 L 22.359375 -19.171875 C 22.359375 -20.515625 21.875 -21.539062 20.90625 -22.25 C 19.945312 -22.96875 18.78125 -23.328125 17.40625 -23.328125 C 16.5 -23.328125 15.625 -23.164062 14.78125 -22.84375 C 13.945312 -22.519531 13.265625 -22.023438 12.734375 -21.359375 C 12.210938 -20.703125 11.953125 -19.890625 11.953125 -18.921875 L 11.953125 0 Z M 3.578125 0 "/></g></g></g><g fill="#ffffff" fill-opacity="1"><g transform="translate(388.920299, 379.408418)"><g><path d="M 14.5 0.578125 C 13.125 0.578125 11.769531 0.367188 10.4375 -0.046875 C 9.113281 -0.472656 7.90625 -1.097656 6.8125 -1.921875 C 5.726562 -2.742188 4.851562 -3.753906 4.1875 -4.953125 C 3.53125 -6.160156 3.203125 -7.554688 3.203125 -9.140625 L 3.203125 -29.640625 L 11.578125 -29.640625 L 11.578125 -10.203125 C 11.578125 -8.828125 12.023438 -7.695312 12.921875 -6.8125 C 13.828125 -5.9375 15.148438 -5.5 16.890625 -5.5 C 18.523438 -5.5 19.828125 -5.921875 20.796875 -6.765625 C 21.765625 -7.617188 22.25 -8.8125 22.25 -10.34375 L 22.25 -29.640625 L 30.53125 -29.640625 L 30.53125 0 L 24.21875 0 L 23.25 -5.875 C 22.90625 -4.132812 22.257812 -2.800781 21.3125 -1.875 C 20.363281 -0.945312 19.28125 -0.304688 18.0625 0.046875 C 16.851562 0.398438 15.664062 0.578125 14.5 0.578125 Z M 14.5 0.578125 "/></g></g></g><g fill="#ffffff" fill-opacity="1"><g transform="translate(422.650944, 379.408418)"><g><path d="M 20.09375 0.578125 C 18.625 0.578125 17.351562 0.382812 16.28125 0 C 15.207031 -0.382812 14.296875 -0.894531 13.546875 -1.53125 C 12.804688 -2.175781 12.195312 -2.890625 11.71875 -3.671875 C 11.238281 -4.453125 10.867188 -5.253906 10.609375 -6.078125 L 9.65625 0 L 3.578125 0 L 3.578125 -42.59375 L 11.984375 -42.59375 L 11.984375 -25.625 C 12.347656 -26.257812 12.816406 -26.851562 13.390625 -27.40625 C 13.960938 -27.957031 14.628906 -28.441406 15.390625 -28.859375 C 16.160156 -29.285156 17.003906 -29.617188 17.921875 -29.859375 C 18.847656 -30.097656 19.835938 -30.21875 20.890625 -30.21875 C 24.578125 -30.21875 27.46875 -28.890625 29.5625 -26.234375 C 31.65625 -23.578125 32.703125 -19.828125 32.703125 -14.984375 C 32.703125 -11.859375 32.222656 -9.128906 31.265625 -6.796875 C 30.316406 -4.460938 28.90625 -2.648438 27.03125 -1.359375 C 25.15625 -0.0664062 22.84375 0.578125 20.09375 0.578125 Z M 18.265625 -5.453125 C 20.054688 -5.453125 21.546875 -6.191406 22.734375 -7.671875 C 23.929688 -9.148438 24.53125 -11.628906 24.53125 -15.109375 C 24.53125 -18.179688 23.960938 -20.453125 22.828125 -21.921875 C 21.691406 -23.398438 20.148438 -24.140625 18.203125 -24.140625 C 16.804688 -24.140625 15.648438 -23.804688 14.734375 -23.140625 C 13.816406 -22.484375 13.132812 -21.484375 12.6875 -20.140625 C 12.238281 -18.804688 12.003906 -17.128906 11.984375 -15.109375 C 11.984375 -11.609375 12.503906 -9.125 13.546875 -7.65625 C 14.585938 -6.1875 16.160156 -5.453125 18.265625 -5.453125 Z M 18.265625 -5.453125 "/></g></g></g><g fill="#ffffff" fill-opacity="1"><g transform="translate(465.638879, 376.798593)"><g><path d="M 1.65625 0 L 1.65625 -5.296875 L 6.984375 -5.296875 L 6.984375 0 Z M 1.65625 0 "/></g></g></g><g fill="#ffffff" fill-opacity="1"><g transform="translate(474.617603, 376.798593)"><g/></g></g><g fill="#ffffff" fill-opacity="1"><g transform="translate(481.680644, 376.798593)"><g><path d="M 9.46875 -17.5625 C 10.90625 -17.5625 12.148438 -17.265625 13.203125 -16.671875 C 14.253906 -16.085938 15.082031 -15.296875 15.6875 -14.296875 C 16.289062 -13.296875 16.640625 -12.179688 16.734375 -10.953125 L 12.6875 -10.953125 C 12.601562 -11.398438 12.4375 -11.847656 12.1875 -12.296875 C 11.945312 -12.753906 11.601562 -13.128906 11.15625 -13.421875 C 10.71875 -13.710938 10.164062 -13.859375 9.5 -13.859375 C 8.363281 -13.859375 7.441406 -13.421875 6.734375 -12.546875 C 6.035156 -11.679688 5.6875 -10.359375 5.6875 -8.578125 C 5.6875 -6.898438 6.03125 -5.566406 6.71875 -4.578125 C 7.40625 -3.597656 8.363281 -3.109375 9.59375 -3.109375 C 10.25 -3.109375 10.796875 -3.269531 11.234375 -3.59375 C 11.671875 -3.914062 12.007812 -4.300781 12.25 -4.75 C 12.5 -5.207031 12.660156 -5.628906 12.734375 -6.015625 L 16.6875 -6.015625 C 16.601562 -4.828125 16.253906 -3.75 15.640625 -2.78125 C 15.035156 -1.820312 14.207031 -1.0625 13.15625 -0.5 C 12.101562 0.0507812 10.875 0.328125 9.46875 0.328125 C 7.863281 0.328125 6.429688 -0.0234375 5.171875 -0.734375 C 3.921875 -1.441406 2.9375 -2.457031 2.21875 -3.78125 C 1.507812 -5.113281 1.15625 -6.703125 1.15625 -8.546875 C 1.15625 -10.328125 1.5 -11.894531 2.1875 -13.25 C 2.875 -14.601562 3.84375 -15.660156 5.09375 -16.421875 C 6.34375 -17.179688 7.800781 -17.5625 9.46875 -17.5625 Z M 9.46875 -17.5625 "/></g></g></g><g fill="#ffffff" fill-opacity="1"><g transform="translate(499.671419, 376.798593)"><g><path d="M 9.484375 0.328125 C 7.796875 0.328125 6.328125 -0.03125 5.078125 -0.75 C 3.828125 -1.46875 2.859375 -2.488281 2.171875 -3.8125 C 1.492188 -5.132812 1.15625 -6.703125 1.15625 -8.515625 C 1.15625 -10.328125 1.492188 -11.910156 2.171875 -13.265625 C 2.859375 -14.617188 3.828125 -15.671875 5.078125 -16.421875 C 6.328125 -17.179688 7.800781 -17.5625 9.5 -17.5625 C 11.195312 -17.5625 12.664062 -17.191406 13.90625 -16.453125 C 15.15625 -15.710938 16.117188 -14.664062 16.796875 -13.3125 C 17.472656 -11.957031 17.8125 -10.359375 17.8125 -8.515625 C 17.8125 -6.785156 17.476562 -5.253906 16.8125 -3.921875 C 16.15625 -2.597656 15.207031 -1.554688 13.96875 -0.796875 C 12.726562 -0.046875 11.234375 0.328125 9.484375 0.328125 Z M 9.5 -3.28125 C 10.351562 -3.28125 11.039062 -3.53125 11.5625 -4.03125 C 12.082031 -4.53125 12.460938 -5.1875 12.703125 -6 C 12.941406 -6.820312 13.0625 -7.71875 13.0625 -8.6875 C 13.0625 -9.59375 12.953125 -10.453125 12.734375 -11.265625 C 12.523438 -12.078125 12.15625 -12.734375 11.625 -13.234375 C 11.101562 -13.734375 10.394531 -13.984375 9.5 -13.984375 C 8.644531 -13.984375 7.953125 -13.742188 7.421875 -13.265625 C 6.890625 -12.796875 6.503906 -12.15625 6.265625 -11.34375 C 6.023438 -10.539062 5.90625 -9.65625 5.90625 -8.6875 C 5.90625 -7.78125 6.015625 -6.910156 6.234375 -6.078125 C 6.453125 -5.253906 6.820312 -4.582031 7.34375 -4.0625 C 7.863281 -3.539062 8.582031 -3.28125 9.5 -3.28125 Z M 9.5 -3.28125 "/></g></g></g><g fill="#ffffff" fill-opacity="1"><g transform="translate(518.628361, 376.798593)"><g><path d="M 2.078125 0 L 2.078125 -17.234375 L 6.84375 -17.234375 L 6.84375 -14.796875 C 7.363281 -15.554688 8.066406 -16.207031 8.953125 -16.75 C 9.835938 -17.289062 10.953125 -17.5625 12.296875 -17.5625 C 12.890625 -17.5625 13.488281 -17.457031 14.09375 -17.25 C 14.707031 -17.039062 15.28125 -16.734375 15.8125 -16.328125 C 16.351562 -15.921875 16.789062 -15.410156 17.125 -14.796875 C 17.6875 -15.585938 18.421875 -16.242188 19.328125 -16.765625 C 20.234375 -17.296875 21.238281 -17.5625 22.34375 -17.5625 C 22.988281 -17.5625 23.640625 -17.457031 24.296875 -17.25 C 24.960938 -17.039062 25.570312 -16.695312 26.125 -16.21875 C 26.6875 -15.738281 27.132812 -15.097656 27.46875 -14.296875 C 27.8125 -13.503906 27.984375 -12.523438 27.984375 -11.359375 L 27.984375 0 L 23.109375 0 L 23.109375 -10.765625 C 23.109375 -11.453125 22.972656 -12.003906 22.703125 -12.421875 C 22.429688 -12.835938 22.085938 -13.132812 21.671875 -13.3125 C 21.253906 -13.5 20.8125 -13.59375 20.34375 -13.59375 C 19.914062 -13.59375 19.476562 -13.503906 19.03125 -13.328125 C 18.582031 -13.160156 18.203125 -12.890625 17.890625 -12.515625 C 17.585938 -12.140625 17.4375 -11.644531 17.4375 -11.03125 L 17.4375 0 L 12.578125 0 L 12.578125 -11.203125 C 12.578125 -11.722656 12.4375 -12.160156 12.15625 -12.515625 C 11.882812 -12.867188 11.539062 -13.132812 11.125 -13.3125 C 10.707031 -13.5 10.28125 -13.59375 9.84375 -13.59375 C 9.40625 -13.59375 8.960938 -13.5 8.515625 -13.3125 C 8.066406 -13.132812 7.691406 -12.851562 7.390625 -12.46875 C 7.097656 -12.082031 6.953125 -11.601562 6.953125 -11.03125 L 6.953125 0 Z M 2.078125 0 "/></g></g></g></svg>